Started on 2012-11-30 17:31:42 - 2012 Nov 30

Checking File ....
File : /mnt/array1/www/htdocs/wwwroot/files/conversion_queue/1354267900d2827.flv
File Exists : Yes
raw_output_for_stat : ffmpeg version N-44546-g66bdc58 Copyright (c) 2000-2012 the FFmpeg developers
  built on Sep 20 2012 14:29:12 with gcc 4.3.2 (Sourcery G++ Lite 2008q3-72)
  configuration: --prefix=/home/administrator/nas/usr/local --arch=arm --target-os=linux --enable-gpl --enable-libx264 --enable-libxvid --enable-cross-compile --cross-prefix=/usr/local/arm/4.3.2/bin/arm-linux- --extra-cflags=-I/home/administrator/nas/usr/local/include --extra-ldflags=-L/home/administrator/nas/usr/local/lib --extra-cflags=-static --extra-ldflags=-static --enable-libfaac --enable-nonfree
  libavutil      51. 73.101 / 51. 73.101
  libavcodec     54. 56.100 / 54. 56.100
  libavformat    54. 27.101 / 54. 27.101
  libavdevice    54.  2.100 / 54.  2.100
  libavfilter     3. 16.104 /  3. 16.104
  libswscale      2.  1.101 /  2.  1.101
  libswresample   0. 15.100 /  0. 15.100
  libpostproc    52.  0.100 / 52.  0.100
Input #0, flv, from '/mnt/array1/www/htdocs/wwwroot/files/conversion_queue/1354267900d2827.flv':
  Metadata:
    starttime       : 0
    totalduration   : 58
    totaldatarate   : 622
    bytelength      : 4540625
    canseekontime   : true
    sourcedata      : BCA28DD05HH1348547692348426
    purl            : 
    pmsg            : 
  Duration: 00:00:58.20, start: 0.000000, bitrate: 624 kb/s
    Stream #0:0: Video: h264 (Main), yuv420p, 854x480, 498 kb/s, 25 tbr, 1k tbn, 50 tbc
    Stream #0:1: Audio: aac, 44100 Hz, stereo, s16, 131 kb/s
Output #0, null, to '/dev/null':
  Metadata:
    starttime       : 0
    totalduration   : 58
    totaldatarate   : 622
    bytelength      : 4540625
    canseekontime   : true
    sourcedata      : BCA28DD05HH1348547692348426
    purl            : 
    pmsg            : 
    encoder         : Lavf54.27.101
    Stream #0:0: Video: h264, yuv420p, 854x480, q=2-31, 498 kb/s, 90k tbn, 25 tbc
    Stream #0:1: Audio: aac, 44100 Hz, stereo, 131 kb/s
Stream mapping:
  Stream #0:0 -> #0:0 (copy)
  Stream #0:1 -> #0:1 (copy)
Press [q] to stop, [?] for help
frame= 1456 fps=0.0 q=-1.0 Lsize=       0kB time=00:00:58.37 bitrate=   0.0kbits/s    
video:3451kB audio:912kB subtitle:0 global headers:0kB muxing overhead -100.000000%


Preparing file...
format : flv
duration : 58.2
size : 4540625
bitrate : 609
video_width : 854
video_height : 480
video_wh_ratio : 1.77916666667
video_codec : h264
video_rate : 25.0171821306
video_bitrate : 474
video_color : N/A
audio_codec : aac
audio_bitrate : 125
audio_rate : 44100
audio_channels : stereo
path : /mnt/array1/www/htdocs/wwwroot/files/conversion_queue/1354267900d2827.flv

Converting Video
Conversion Command : /usr/local/bin/ffmpeg -i /mnt/array1/www/htdocs/wwwroot/files/conversion_queue/1354267900d2827.flv  -f flv  -vcodec libx264 -r 25  -ab 128000  -ar 22050  /mnt/array1/www/htdocs/wwwroot/files/videos/1354267900d2827.flv  2> /mnt/array1/www/htdocs/wwwroot/files/temp/135426790575a6f.tmp


Conversion Details

Flv Quick Conv;raw_output_for_stat : ffmpeg version N-44546-g66bdc58 Copyright (c) 2000-2012 the FFmpeg developers
  built on Sep 20 2012 14:29:12 with gcc 4.3.2 (Sourcery G++ Lite 2008q3-72)
  configuration: --prefix=/home/administrator/nas/usr/local --arch=arm --target-os=linux --enable-gpl --enable-libx264 --enable-libxvid --enable-cross-compile --cross-prefix=/usr/local/arm/4.3.2/bin/arm-linux- --extra-cflags=-I/home/administrator/nas/usr/local/include --extra-ldflags=-L/home/administrator/nas/usr/local/lib --extra-cflags=-static --extra-ldflags=-static --enable-libfaac --enable-nonfree
  libavutil      51. 73.101 / 51. 73.101
  libavcodec     54. 56.100 / 54. 56.100
  libavformat    54. 27.101 / 54. 27.101
  libavdevice    54.  2.100 / 54.  2.100
  libavfilter     3. 16.104 /  3. 16.104
  libswscale      2.  1.101 /  2.  1.101
  libswresample   0. 15.100 /  0. 15.100
  libpostproc    52.  0.100 / 52.  0.100
Input #0, flv, from '/mnt/array1/www/htdocs/wwwroot/files/videos/1354267900d2827.flv':
  Metadata:
    starttime       : 0
    totalduration   : 58
    totaldatarate   : 622
    bytelength      : 4540625
    canseekontime   : true
    sourcedata      : BCA28DD05HH1348547692348426
    purl            : 
    pmsg            : 
  Duration: 00:00:58.20, start: 0.000000, bitrate: 624 kb/s
    Stream #0:0: Video: h264 (Main), yuv420p, 854x480, 498 kb/s, 25 tbr, 1k tbn, 50 tbc
    Stream #0:1: Audio: aac, 44100 Hz, stereo, s16, 131 kb/s
Output #0, null, to '/dev/null':
  Metadata:
    starttime       : 0
    totalduration   : 58
    totaldatarate   : 622
    bytelength      : 4540625
    canseekontime   : true
    sourcedata      : BCA28DD05HH1348547692348426
    purl            : 
    pmsg            : 
    encoder         : Lavf54.27.101
    Stream #0:0: Video: h264, yuv420p, 854x480, q=2-31, 498 kb/s, 90k tbn, 25 tbc
    Stream #0:1: Audio: aac, 44100 Hz, stereo, 131 kb/s
Stream mapping:
  Stream #0:0 -> #0:0 (copy)
  Stream #0:1 -> #0:1 (copy)
Press [q] to stop, [?] for help
frame= 1456 fps=0.0 q=-1.0 Lsize=       0kB time=00:00:58.37 bitrate=   0.0kbits/s    
video:3451kB audio:912kB subtitle:0 global headers:0kB muxing overhead -100.000000%

raw_output_for_stat : ffmpeg version N-44546-g66bdc58 Copyright (c) 2000-2012 the FFmpeg developers
  built on Sep 20 2012 14:29:12 with gcc 4.3.2 (Sourcery G++ Lite 2008q3-72)
  configuration: --prefix=/home/administrator/nas/usr/local --arch=arm --target-os=linux --enable-gpl --enable-libx264 --enable-libxvid --enable-cross-compile --cross-prefix=/usr/local/arm/4.3.2/bin/arm-linux- --extra-cflags=-I/home/administrator/nas/usr/local/include --extra-ldflags=-L/home/administrator/nas/usr/local/lib --extra-cflags=-static --extra-ldflags=-static --enable-libfaac --enable-nonfree
  libavutil      51. 73.101 / 51. 73.101
  libavcodec     54. 56.100 / 54. 56.100
  libavformat    54. 27.101 / 54. 27.101
  libavdevice    54.  2.100 / 54.  2.100
  libavfilter     3. 16.104 /  3. 16.104
  libswscale      2.  1.101 /  2.  1.101
  libswresample   0. 15.100 /  0. 15.100
  libpostproc    52.  0.100 / 52.  0.100
Input #0, flv, from '/mnt/array1/www/htdocs/wwwroot/files/videos/1354267900d2827.flv':
  Metadata:
    starttime       : 0
    totalduration   : 58
    totaldatarate   : 622
    bytelength      : 4540625
    canseekontime   : true
    sourcedata      : BCA28DD05HH1348547692348426
    purl            : 
    pmsg            : 
  Duration: 00:00:58.20, start: 0.000000, bitrate: 624 kb/s
    Stream #0:0: Video: h264 (Main), yuv420p, 854x480, 498 kb/s, 25 tbr, 1k tbn, 50 tbc
    Stream #0:1: Audio: aac, 44100 Hz, stereo, s16, 131 kb/s
Output #0, null, to '/dev/null':
  Metadata:
    starttime       : 0
    totalduration   : 58
    totaldatarate   : 622
    bytelength      : 4540625
    canseekontime   : true
    sourcedata      : BCA28DD05HH1348547692348426
    purl            : 
    pmsg            : 
    encoder         : Lavf54.27.101
    Stream #0:0: Video: h264, yuv420p, 854x480, q=2-31, 498 kb/s, 90k tbn, 25 tbc
    Stream #0:1: Audio: aac, 44100 Hz, stereo, 131 kb/s
Stream mapping:
  Stream #0:0 -> #0:0 (copy)
  Stream #0:1 -> #0:1 (copy)
Press [q] to stop, [?] for help
frame= 1456 fps=0.0 q=-1.0 Lsize=       0kB time=00:00:58.37 bitrate=   0.0kbits/s    
video:3451kB audio:912kB subtitle:0 global headers:0kB muxing overhead -100.000000%



output_format : flv
output_duration : 58.2
output_size : 4540625
output_bitrate : 609
output_video_width : 854
output_video_height : 480
output_video_wh_ratio : 1.77916666667
output_video_codec : h264
output_video_rate : 25.0171821306
output_video_bitrate : 474
output_video_color : N/A
output_audio_codec : aac
output_audio_bitrate : 125
output_audio_rate : 44100
output_audio_channels : stereo
output_path : /mnt/array1/www/htdocs/wwwroot/files/videos/1354267900d2827.flv


Time Took : 3.9317 seconds

conversion_status : completed
